<svg width="16" height="16" viewBox="0 0 16 16" fill="none" xmlns="http://www.w3.org/2000/svg">
  <path d="M5 2.75C5 1.78 5.78 1 6.75 1H12.25C13.22 1 14 1.78 14 2.75V8.25C14 9.22 13.22 10 12.25 10H10.75V8.75H12.25C12.53 8.75 12.75 8.53 12.75 8.25V2.75C12.75 2.47 12.53 2.25 12.25 2.25H6.75C6.47 2.25 6.25 2.47 6.25 2.75V4.25H5V2.75Z" fill="#8AB4F8"/>
  <path d="M2 7.75C2 6.78 2.78 6 3.75 6H9.25C10.22 6 11 6.78 11 7.75V13.25C11 14.22 10.22 15 9.25 15H3.75C2.78 15 2 14.22 2 13.25V7.75ZM3.75 7.25C3.47 7.25 3.25 7.47 3.25 7.75V13.25C3.25 13.53 3.47 13.75 3.75 13.75H9.25C9.53 13.75 9.75 13.53 9.75 13.25V7.75C9.75 7.47 9.53 7.25 9.25 7.25H3.75Z" fill="#8AB4F8"/>
</svg>
